# xmcd
#
# Track frame offsets: 
#        150
#        11237
#        30197
#        57772
#        80709
#        94896
#        129422
#        156728
#        178600
#        197762
#        217092
#        239717
#
# Disc length: 3344 seconds
#
# Revision: 2
# Processed by: cddbd v1.5.2PL0 Copyright (c) Steve Scherf et al.
# Submitted via: ExactAudioCopy v1.0b3
#
DISCID=ab0d0e0c
DTITLE=Various Artist - Electric Gypsyland 2 - bonus cd
DYEAR=2006
DGENRE=Salsa
TTITLE0=Kocani Orkestar - Cudna Zena
TTITLE1=Kocani Orkestar - Siki, Siki Baba
TTITLE2=Kocani Orkestar - L'Orient est Rouge
TTITLE3=Taraf de Haidouks - Duba, duba si Hora
TTITLE4=Taraf de Haidouks - Terno Chelipé
TTITLE5=Taraf de Haidouks - Cind Eram La
TTITLE6=Taraf de Haidouks - La Turk feat. Kocani Orkestar
TTITLE7=Mahala Rai Banda - Spoitoresa
TTITLE8=Mahala Rai Banda - lest sexy
TTITLE9=Mahala Rai Banda - Romano Dance
TTITLE10=Zelwer - The Fiancee's Dream
TTITLE11=Zelwer - Soldier Tufaiev Gets Married
EXTD=YEAR: 2006
EXTT0=
EXTT1=
EXTT2=
EXTT3=
EXTT4=
EXTT5=
EXTT6=
EXTT7=
EXTT8=
EXTT9=
EXTT10=
EXTT11=
PLAYORDER=
